<svg width="960" height="540" viewBox="0 0 960 540" fill="none" xmlns="http://www.w3.org/2000/svg">
  <rect width="960" height="540" fill="#F4E8D2"/>
  <rect y="362" width="960" height="178" fill="#D4C29F"/>
  <path d="M0 347C116 310 188 290 278 293C401 297 475 392 584 392C711 392 767 307 871 274C904 264 934 259 960 257V540H0V347Z" fill="#3E9593"/>
  <path d="M0 402C83 383 136 374 200 378C310 384 395 459 504 459C633 459 686 381 802 347C857 331 908 323 960 320V540H0V402Z" fill="#01633F"/>
  <circle cx="739" cy="129" r="58" fill="#FCB040"/>
  <path d="M133 360L291 178L446 360H133Z" fill="#E95629"/>
  <path d="M287 360L446 133L644 360H287Z" fill="#163728"/>
  <path d="M585 360L713 212L845 360H585Z" fill="#007672"/>
  <path d="M0 466C87 446 150 438 225 442C336 448 417 502 533 502C649 502 723 460 818 442C870 432 917 428 960 427V540H0V466Z" fill="#24523C"/>
</svg>
